<?xml version="1.0" encoding="UTF-8" standalone="no"?>
<!DOCTYPE svg PUBLIC "-//W3C//DTD SVG 1.1//EN" "http://www.w3.org/Graphics/SVG/1.1/DTD/svg11.dtd">
<svg version="1.1" xmlns="http://www.w3.org/2000/svg" xmlns:xlink="http://www.w3.org/1999/xlink" preserveAspectRatio="xMidYMid meet" viewBox="0 0 640 640" width="640" height="640"><defs><path d="M339.05 204.18C332.22 198.37 321.16 198.37 314.34 204.18C299 217.24 176.26 321.73 160.92 334.79C154.1 340.6 154.1 350.02 160.92 355.83C162.15 356.88 172.04 365.29 173.28 366.35C180.1 372.16 191.17 372.16 198 366.35C206.58 359.04 249.48 322.52 326.7 256.78C403.92 322.52 446.82 359.04 455.4 366.35C462.22 372.16 473.29 372.16 480.11 366.35C481.35 365.29 491.23 356.88 492.47 355.83C499.3 350.01 499.3 340.6 492.46 334.79C461.78 308.67 354.39 217.24 339.05 204.18Z" id="d58NVWiewX"></path></defs><g><g><g><use xlink:href="#d58NVWiewX" opacity="1" fill="#fdfdfd" fill-opacity="1"></use><g><use xlink:href="#d58NVWiewX" opacity="1" fill-opacity="0" stroke="#000000" stroke-width="1" stroke-opacity="0"></use></g></g></g></g></svg>