<?xml version="1.0" encoding="utf-8"?>
<!-- Generator: Adobe Illustrator 22.1.0, SVG Export Plug-In . SVG Version: 6.00 Build 0)  -->
<svg version="1.1" id="圖層_1" xmlns="http://www.w3.org/2000/svg" xmlns:xlink="http://www.w3.org/1999/xlink" x="0px" y="0px"
	 viewBox="0 0 138 24" style="enable-background:new 0 0 138 24;" xml:space="preserve">
<style type="text/css">
	.st0{fill:#FFFFFF;}
</style>
<g id="Group_23" transform="translate(-10 -182)">
	<g id="Group_21" transform="translate(0 0.492)">
		<path id="Path_67" class="st0" d="M16.7,189h0.7c1.7,0,3.3,0,2.9,2.3c-0.3,2.3-2,2.3-3.6,2.3H16L16.7,189z M10,203.6h4.5l0.9-6.1
			H18c4,0,6.5-1.9,7.1-6.3c0.6-4.2-1.7-6-5.4-6h-6.9L10,203.6z"/>
		<path id="Path_68" class="st0" d="M44.1,186l-1.2,7.7H43c0.8-1,2.1-1.7,3.4-1.7c2.5,0,3.4,1.7,3,4.4l-0.9,6.3H45l0.8-5.3
			c0.2-1.2,0.2-2.5-1.2-2.5s-2,1.2-2.2,2.5l-0.9,5.3H38l2.5-16.7H44.1z"/>
		<path id="Path_69" class="st0" d="M56.7,195.2c1-0.1,1.9,0.7,1.9,1.7c0,0.2,0,0.5-0.1,0.7c-0.1,1.3-1.3,2.3-2.6,2.3
			c-1,0.1-1.8-0.6-1.9-1.6c0-0.2,0-0.5,0.1-0.7C54.2,196.3,55.3,195.2,56.7,195.2z M57.2,192c-3.3-0.1-6.2,2.3-6.7,5.5
			c-0.6,3.5,1.9,5.5,5.1,5.5c3.3,0.1,6.2-2.3,6.7-5.5C62.7,194,60.3,192,57.2,192z"/>
		<path id="Path_70" class="st0" d="M67.5,193.7L67.5,193.7c0.8-1,2.1-1.7,3.4-1.7c1.3-0.1,2.6,0.7,3,2c0.8-1.2,2.2-2,3.7-2
			c2.5,0,3.1,1.7,2.7,4.1l-1,6.6h-3.5l0.7-4.9c0.2-1,0.4-2.8-1-2.8c-1.6,0-1.9,1.6-2.1,2.8l-0.7,4.9h-3.5l0.7-4.9
			c0.2-1.2,0.4-2.9-1.1-2.9s-1.8,1.7-2,2.9l-0.7,4.9h-3.5l1.5-10.3h3.5L67.5,193.7z"/>
		<path id="Path_71" class="st0" d="M85,196c0.3-1,1.2-1.7,2.3-1.7c0.9,0,1.7,0.7,1.7,1.6c0,0,0,0,0,0.1L85,196L85,196z M92,197.8
			c0.6-3.5-1.1-5.7-4.5-5.7c-3.2-0.1-5.9,2.3-6.2,5.5c-0.6,3.6,1.6,5.5,4.8,5.5c2.4,0.1,4.6-1.3,5.5-3.6h-3.3
			c-0.4,0.6-1.1,1-1.8,0.9c-1.4,0-2-0.8-1.9-2.3h7.3L92,197.8z"/>
		<path id="Path_72" class="st0" d="M36.5,185.2L36.5,185.2c-0.3-0.1-0.7-0.1-1-0.1c-2.5,0.1-4.9,1.1-6.7,2.8
			c-1.8,1.7-3,3.9-3.4,6.4c-0.5,2.4,0.1,4.8,1.7,6.6c1.5,1.7,3.6,2.6,5.9,2.6c0.3,0,0.5,0,0.8-0.1l0,0c1-0.2,2.1-0.4,3.1-0.7
			l0.8-5.5c-0.9,0.9-2,1.6-3.3,1.8l0,0c-0.2,0.1-0.5,0.1-0.7,0.1c-2.7,0-4.2-2-3.8-4.8c0.3-2.7,2.5-4.7,5.1-4.9
			c0.2,0,0.6,0.1,0.8,0.1c1.1,0.2,2.1,0.9,2.7,1.8l0.8-5.5C38.4,185.5,37.4,185.3,36.5,185.2z"/>
	</g>
	<path id="Path_73" class="st0" d="M63.8,186.3c0.6,0,1,0.5,1,1.1c0,0.1,0,0.1,0,0.2c-0.1,0.7-0.7,1.3-1.4,1.4c-0.7,0-1.1-0.7-1-1.4
		S63.1,186.4,63.8,186.3z M63.3,189.7c1.2,0,2.1-0.9,2.3-2.1c0.2-0.9-0.4-1.8-1.3-2.1c-0.1,0-0.2,0-0.4,0c-1.2,0.1-2.1,0.9-2.3,2.1
		c-0.2,0.9,0.4,1.8,1.3,2.1C63,189.7,63.2,189.7,63.3,189.7L63.3,189.7z"/>
	<path id="Path_74" class="st0" d="M68.9,185.5h0.6l1.7,2.8l0,0l0.4-2.6h0.7l-0.6,4H71l-1.5-2.7l0,0l-0.4,2.7h-0.7L68.9,185.5z"/>
	<path id="Path_75" class="st0" d="M75.8,188.9h1.1l-0.1,0.7h-1.9l0.6-3.9h0.7L75.8,188.9z"/>
	<path id="Path_76" class="st0" d="M80.4,189.6h-0.8l0.6-3.9H81L80.4,189.6z"/>
	<path id="Path_77" class="st0" d="M84.2,185.5h0.6l1.7,2.8l0,0l0.4-2.6h0.8l-0.6,4h-0.6l-1.6-2.7l0,0l-0.4,2.7h-0.8L84.2,185.5z"/>
	<path id="Path_78" class="st0" d="M91.5,186.3l-0.1,0.9h1.2l-0.1,0.7h-1.2l-0.2,1h1.3l-0.1,0.7h-2l0.6-3.9h2l-0.1,0.7L91.5,186.3
		L91.5,186.3z"/>
	<g id="Group_22" transform="translate(86.513)">
		<path id="Path_79" class="st0" d="M25,189.6h-5.3l-3.2,15.2h-4.4l3.2-15.2H10l0.7-3.6h15L25,189.6z"/>
		<path id="Path_80" class="st0" d="M38.2,193.8c0,0.3,0,0.5-0.1,0.8c0,0.3-0.1,0.7-0.1,1l-1.9,9.2H32l1.5-7c0.1-0.6,0.2-1,0.2-1.4
			c0-0.3,0.1-0.7,0.1-1c0-0.4-0.1-0.9-0.4-1.2c-0.4-0.3-0.9-0.4-1.4-0.4c-0.4,0-0.8,0.1-1.1,0.2c-0.5,0.2-1,0.4-1.4,0.7l-2.2,10
			h-4.1l4.1-19.7h4.1l-1.5,7c0.7-0.5,1.5-1,2.3-1.4c0.7-0.4,1.5-0.5,2.3-0.5c1-0.1,2,0.3,2.7,0.9C37.9,191.8,38.2,192.8,38.2,193.8z
			"/>
		<path id="Path_81" class="st0" d="M46.8,203.2c-0.2,0.2-0.6,0.4-0.9,0.7c-0.3,0.2-0.6,0.4-1,0.6c-0.4,0.2-0.8,0.3-1.2,0.4
			c-0.5,0.1-1,0.2-1.5,0.1c-1,0-1.9-0.3-2.6-1c-0.7-0.7-1-1.6-1-2.6s0.2-2,0.7-2.8s1.3-1.5,2.2-1.8c1-0.5,2.1-0.8,3.2-0.9
			c1.2-0.2,2.5-0.3,4-0.4c0-0.1,0-0.2,0.1-0.2c0-0.1,0.1-0.2,0.1-0.4c0.1-0.5-0.2-1-0.7-1.2c-0.7-0.3-1.5-0.4-2.2-0.4
			c-0.8,0-1.5,0.1-2.2,0.4c-0.8,0.2-1.4,0.5-1.9,0.6h-0.4l0.6-3.4c0.7-0.2,1.5-0.3,2.2-0.4c1-0.2,2-0.3,3-0.2
			c1.5-0.1,3.1,0.2,4.5,0.9c0.9,0.6,1.5,1.6,1.4,2.7c0,0.2,0,0.5-0.1,0.7c0,0.2-0.1,0.5-0.1,0.7l-2.3,9.6h-4.1L46.8,203.2z
			 M47.8,198.1c-0.7,0-1.4,0.1-2,0.2c-0.6,0.1-1.1,0.2-1.7,0.4c-0.4,0.1-0.8,0.4-1.1,0.8c-0.3,0.4-0.4,0.9-0.4,1.4
			c0,0.4,0.2,0.8,0.5,1c0.4,0.2,0.9,0.3,1.4,0.3c0.4,0,0.9-0.1,1.3-0.3c0.5-0.2,0.9-0.5,1.3-0.8L47.8,198.1z"/>
		<path id="Path_82" class="st0" d="M60.2,190.6l-3,14.2h-4.1l3-14.2H60.2z M61.5,185.1l-0.7,3.4h-4.4l0.8-3.4H61.5z"/>
	</g>
</g>
</svg>
